<svg width="1920" height="1000" viewBox="0 0 1920 1000" fill="none" xmlns="http://www.w3.org/2000/svg">
<g clip-path="url(#clip0_55_138)">
<rect width="1920" height="1000" fill="white"/>
<path opacity="0.28" fill-rule="evenodd" clip-rule="evenodd" d="M1657.64 112.413L1953.47 -157C2031.51 37.3952 2032.51 203.485 1919.81 336.5C1892.44 218.728 1778.35 132.282 1657.64 112.413Z" fill="#00A54F"/>
<path opacity="0.28" fill-rule="evenodd" clip-rule="evenodd" d="M1849.81 1194L1580.66 1113.86C1603.5 954.819 1692.37 870.379 1818.46 825.066C1790.54 914.206 1778.16 1133.53 1849.81 1194Z" fill="#FFCA07"/>
<path opacity="0.28" fill-rule="evenodd" clip-rule="evenodd" d="M1801.31 -19.5C1662.14 116.215 1585.31 195 1450.81 141.189L1655.62 -172C1686.26 -48.6226 1698.03 -21.3981 1801.31 -19.5Z" fill="#A1CC3A"/>
<path opacity="0.28" fill-rule="evenodd" clip-rule="evenodd" d="M1590.2 1352.12L984.123 1193.3C1172.17 923.787 1426.94 855.893 1697.81 889.5C1567.31 1032 1514.3 1177.15 1590.2 1352.12Z" fill="#F38020"/>
<path opacity="0.28" fill-rule="evenodd" clip-rule="evenodd" d="M2245.81 1081.98L1919.64 622C1752.38 865.928 1769.1 1068.04 1883.4 1285.48C1955.88 1132.16 2074.36 1073.62 2245.81 1081.98Z" fill="#1E91CF"/>
</g>
<defs>
<clipPath id="clip0_55_138">
<rect width="1920" height="1000" fill="white"/>
</clipPath>
</defs>
</svg>
