<svg xmlns="http://www.w3.org/2000/svg" viewBox="0 0 293.8 201.2" xml:space="preserve"><g fill-rule="evenodd" clip-rule="evenodd"><path opacity=".5" fill="#E61089" d="M112.2 55.9c-6.6-20.3-4-35.7 6.3-48l20.7 34.7c-13.3-1.9-22.1 2.5-27 13.3z"/><path opacity=".5" fill="#BBBBBD" d="M139.1 42.7 118.4 7.9c20.8-3.9 35.2 3.7 46.2 17.6-12.3.3-21 5.7-25.5 17.2z"/><path opacity=".5" fill="#99D9F7" d="M128.7 25.1c15.9-14.2 32.6-21.3 48-16.8l-23.4 33c-3.6-13-12.8-16-24.6-16.2z"/><path opacity=".5" fill="#1E91CF" d="m153.2 41.2 23.4-33c12 17.5 10.8 32 2.6 47.6-5.2-11-13.7-15.2-26-14.6z"/><path opacity=".5" fill="#A4A7AA" d="M130.9 86.3c-20.9-4.2-34.3-15-39.8-29.9l40.4-1c-8.3 10.6-7.5 21.3-.6 30.9z"/><path opacity=".5" fill="#98D1AD" d="m131.5 55.4-40.4 1c6.9-20 20.2-28.6 37.6-31.3-5.8 10.8-5.1 20.8 2.8 30.3z"/><path opacity=".5" fill="#E82429" d="M164.5 89.8c20.9-4.2 32.7-18.5 38.2-33.4l-40.4-1c8.3 10.6 9.1 24.8 2.2 34.4z"/><path opacity=".5" fill="#00A54F" d="m162.3 55.4 40.4 1c-6.9-20-20.7-28.2-38.1-30.9 5.7 10.8 5.6 20.4-2.3 29.9z"/><path opacity=".5" fill="#8DD7F7" d="M112.2 55.9c-6.6 20.3-4 39.1 6.3 51.3l20.7-34.7c-13.3 2-22.1-5.9-27-16.6z"/><path opacity=".5" fill="#FFCA07" d="m139.1 72.5-20.7 34.7c20.8 3.9 35.1-3.6 46.1-17.4-12.3-.3-20.9-5.8-25.4-17.3z"/><path opacity=".5" fill="#A1CC3A" d="M130.9 86.3c15.9 14.3 30.4 25.1 45.7 20.6l-23.4-33c-3.5 13-10.5 12.2-22.3 12.4z"/><path opacity=".5" fill="#F38020" d="m153.2 73.9 23.4 33c12-17.5 10.8-35.5 2.6-51.1-5.2 11.1-13.7 18.7-26 18.1z"/></g><linearGradient id="a" gradientUnits="userSpaceOnUse" x1="141.763" y1="342.281" x2="141.763" y2="-49.583"><stop offset="0" style="stop-color:#e81c53"/><stop offset="1" style="stop-color:#ee5d72"/></linearGradient><path fill="url(#a)" d="M160.3 174.1h-7.7V155c0-1.5-.3-2.9-.8-4.3-.6-1.3-1.3-2.5-2.3-3.5-1-1-2.1-1.8-3.4-2.4-1.3-.6-2.7-.9-4.2-.9s-3 .3-4.3.9c-1.3.6-2.5 1.4-3.4 2.4-1 1-1.7 2.2-2.3 3.5-.6 1.4-.8 2.8-.8 4.3v19.1h-7.7v-47.7l7.7-8v21.1c1.5-1.1 3.1-2 5-2.6 1.8-.6 3.8-.9 5.9-.9 2.5.1 4.9.6 7.2 1.6s4.3 2.4 5.9 4.1c1.7 1.7 3 3.7 4 6s1.5 4.8 1.4 7.3v19.1z"/><linearGradient id="b" gradientUnits="userSpaceOnUse" x1="225.568" y1="246.477" x2="225.568" y2="63.628"><stop offset="0" style="stop-color:#055c8e"/><stop offset="1" style="stop-color:#1e91cf"/></linearGradient><path fill="url(#b)" d="M244 155c0 2.6-.4 5-1.4 7.3-1 2.3-2.3 4.3-3.9 6-1.7 1.7-3.6 3.1-5.9 4.1-2.2 1-4.6 1.5-7.1 1.6h-.1c-2.5 0-4.9-.6-7.1-1.6-2.2-1-4.2-2.4-5.9-4.1-1.7-1.7-3-3.7-4-6s-1.4-4.7-1.4-7.3v-19h7.8l-.1 19c0 1.5.3 3 .8 4.3.5 1.4 1.3 2.5 2.3 3.5 1 1 2.1 1.8 3.4 2.4 1.3.6 2.7.9 4.2.9s2.9-.3 4.2-.9c1.3-.6 2.4-1.4 3.4-2.4s1.7-2.2 2.3-3.5c.6-1.3.9-2.8.9-4.3v-19h7.7v19z"/><linearGradient id="c" gradientUnits="userSpaceOnUse" x1="185.554" y1="342.398" x2="185.554" y2="-49.633"><stop offset="0" style="stop-color:#055c8e"/><stop offset="1" style="stop-color:#1e91cf"/></linearGradient><path fill="url(#c)" d="M204.1 174.1h-7.7V155c0-1.5-.3-2.9-.8-4.3-.6-1.3-1.3-2.5-2.3-3.5-1-1-2.1-1.8-3.4-2.4-1.3-.6-2.7-.9-4.2-.9s-3 .3-4.3.9c-1.3.6-2.5 1.4-3.4 2.4-1 1-1.7 2.2-2.3 3.5-.6 1.4-.9 2.8-.9 4.3v19.1H167v-47.7l7.7-8v21.1c1.5-1.1 3.1-2 5-2.6 1.9-.6 3.8-.9 5.9-.9 2.5.1 4.9.6 7.2 1.6s4.2 2.4 5.9 4.1c1.7 1.7 3 3.7 4 6s1.5 4.8 1.4 7.3v19.1z"/><linearGradient id="d" gradientUnits="userSpaceOnUse" x1="41.376" y1="178.796" x2="41.376" y2="131.545"><stop offset="0" style="stop-color:#055c8e"/><stop offset="1" style="stop-color:#1e91cf"/></linearGradient><path fill="url(#d)" d="M41.4 143.6c.5-.6 1-1.2 1.5-1.7 1.7-1.7 3.6-3.1 5.9-4.1 2.2-1 4.6-1.5 7.1-1.6h.1c2.5.1 4.9.6 7.1 1.6 2.2 1 4.2 2.4 5.9 4.1 1.7 1.7 3 3.7 4 6s1.4 4.7 1.4 7.3v19h-7.8l.1-19c0-1.5-.3-3-.8-4.3-.5-1.3-1.3-2.5-2.3-3.5-1-1-2.1-1.8-3.4-2.4-1.3-.6-2.7-.9-4.2-.9s-2.9.3-4.2.9c-1.3.6-2.4 1.4-3.4 2.4s-1.7 2.2-2.3 3.5c-.6 1.4-.9 2.8-.9 4.3v19H37.4v-19c0-1.5-.3-3-.8-4.3-.6-1.3-1.3-2.5-2.3-3.5-1-1-2.1-1.8-3.4-2.4-1.3-.6-2.7-.9-4.3-.9-1.5 0-2.9.3-4.2.9-1.3.6-2.4 1.4-3.4 2.4s-1.7 2.2-2.3 3.5c-.5 1.4-.8 2.8-.8 4.3l.1 19H8.4v-19c-.1-2.6.4-5 1.4-7.3 1-2.3 2.3-4.3 4-6 1.7-1.7 3.6-3.1 5.9-4.1 2.2-1 4.6-1.5 7.1-1.6h.1c2.5.1 4.9.6 7.1 1.6 2.2 1 4.2 2.4 5.9 4.1.5.5 1 1 1.5 1.7z"/><linearGradient id="e" gradientUnits="userSpaceOnUse" x1="97.279" y1="230.856" x2="97.279" y2="99.588"><stop offset="0" style="stop-color:#055c8e"/><stop offset="1" style="stop-color:#1e91cf"/></linearGradient><path fill="url(#e)" d="M93.4 173.7v16.1l7.7 4.5v-20.6c1.2-.3 2.3-.6 3.4-1.1 2.2-1 4.2-2.4 5.9-4.1 1.7-1.7 3-3.7 4-6s1.4-4.8 1.4-7.3v-19H108l.1 19c0 1.5-.3 3-.8 4.3-.5 1.3-1.3 2.5-2.2 3.5-1 1-2.1 1.8-3.4 2.4-1.3.6-2.7.9-4.2.9s-2.9-.3-4.3-.9c-1.3-.6-2.4-1.4-3.4-2.4s-1.7-2.2-2.3-3.5c-.6-1.3-.9-2.8-.9-4.3v-19h-7.7v19c0 2.6.4 5 1.4 7.3 1 2.3 2.3 4.3 4 6 1.7 1.7 3.6 3.1 5.9 4.1 1 .5 2.1.8 3.2 1.1z"/><linearGradient id="f" gradientUnits="userSpaceOnUse" x1="266.957" y1="188.167" x2="266.957" y2="104.258"><stop offset="0" style="stop-color:#055c8e"/><stop offset="1" style="stop-color:#1e91cf"/></linearGradient><path fill="url(#f)" d="M267 136c2.6 0 5 .5 7.2 1.5s4.2 2.4 5.9 4.1c1.7 1.7 3 3.7 4 6.1 1 2.3 1.4 4.8 1.4 7.4 0 2.6-.5 5.1-1.4 7.4-1 2.3-2.3 4.3-4 6.1-1.7 1.7-3.6 3.1-5.9 4.1-2.2 1-4.7 1.5-7.2 1.5-2.6 0-5-.5-7.2-1.5-2.3-1-4.2-2.4-5.9-4.1-1.7-1.7-3-3.7-4-6.1-.9-2.3-1.4-4.8-1.4-7.4v-28.9l7.7-7.8V155c0 1.5.3 3 .8 4.3.6 1.4 1.3 2.5 2.3 3.5 1 1 2.1 1.8 3.4 2.4 1.3.6 2.7.9 4.2.9s2.9-.3 4.2-.9c1.3-.6 2.5-1.4 3.4-2.4 1-1 1.8-2.2 2.3-3.5.6-1.3.9-2.8.9-4.3s-.3-3-.9-4.3c-.6-1.3-1.3-2.5-2.3-3.5-1-1-2.1-1.8-3.4-2.4-1.3-.6-2.7-.9-4.2-.9-.5 0-1 0-1.4.1-.4 0-.9.1-1.3.2l-1.8-7.7 2.1-.3c.8-.1 1.6-.2 2.5-.2z"/></svg>