<svg width="1920" height="1000" viewBox="0 0 1920 1000" fill="none" xmlns="http://www.w3.org/2000/svg">
<g clip-path="url(#clip0_49_44)">
<rect width="1920" height="1000" fill="white"/>
<path opacity="0.28" fill-rule="evenodd" clip-rule="evenodd" d="M262.166 106.413L-33.6624 -163C-111.698 31.3952 -112.699 197.485 -3.42011e-07 330.5C27.3679 212.728 141.458 126.282 262.166 106.413Z" fill="#00A54F"/>
<path opacity="0.28" fill-rule="evenodd" clip-rule="evenodd" d="M69.9999 1188L339.149 1107.86C316.312 948.819 227.433 864.379 101.344 819.066C129.269 908.206 141.651 1127.53 69.9999 1188Z" fill="#FFCA07"/>
<path opacity="0.28" fill-rule="evenodd" clip-rule="evenodd" d="M118.5 -25.5C257.668 110.215 334.5 189 469 135.189L264.186 -178C233.551 -54.6226 221.782 -27.3981 118.5 -25.5Z" fill="#A1CC3A"/>
<path opacity="0.28" fill-rule="evenodd" clip-rule="evenodd" d="M329.613 1346.12L935.685 1187.3C747.636 917.787 492.872 849.893 222 883.5C352.5 1026 405.505 1171.15 329.613 1346.12Z" fill="#F38020"/>
<path opacity="0.28" fill-rule="evenodd" clip-rule="evenodd" d="M-326 1075.98L0.166527 616C167.431 859.928 150.705 1062.04 36.4071 1279.48C-36.0743 1126.16 -154.554 1067.62 -326 1075.98Z" fill="#1E91CF"/>
</g>
<defs>
<clipPath id="clip0_49_44">
<rect width="1920" height="1000" fill="white"/>
</clipPath>
</defs>
</svg>
